<svg xmlns="http://www.w3.org/2000/svg" viewBox="0 0 500 500"><defs><style>.a{fill:#fff;}.b{fill:#4c6797;}.c{fill:#f1b5b4;}.d{fill:#837fa9;}.e{fill:#a8d5c1;}.f{fill:#64abcb;}.g{fill:#aad4d5;}</style></defs><title>icon</title><rect class="a" width="500" height="500"/><path class="b" d="M344.75,131.09a14.41,14.41,0,0,0-.39-1.64l.08.28C344.56,130.19,344.65,130.64,344.75,131.09Z"/><path class="b" d="M299.64,158.78l.07.1.12-.19Z"/><path class="b" d="M399.66,276.69c-.47-5.6,6.07-17.74-3.27-23.34,1.4-7.47,1.87-14-3.27-20.07s-6.07-13.54.93-19.14,10.74-19.14,2.8-23.81c-7.21-4.24-38.32-20-47.09-28.85h0c-28.6,1,40.18,143.23-9.39,134.21-66-12-142.77,19.17-207.58,120,.14-.91-1,1.84-.85.94-3.09,12.85-5.08,25.08-8,39.45,70.82-98.43,93.76-119.34,210.45-125.58,26.46-1.42,71.81-1.53,75.08-21.61S400.12,282.29,399.66,276.69Z"/><path class="c" d="M112.61,147.88C87,189,93.37,280.81,114.71,343.71,138,146.19,233.82,187.65,299.64,158.78,269.21,109.55,207.64,86.13,112.61,147.88Z"/><path class="c" d="M324.83,102c2.28,2.78,5,5.82,7.78,9A114,114,0,0,0,324.83,102Z"/><path class="d" d="M322.24,99.41c-13.9-13.52-35.17-27-65.89-28.18C204.47,69.15,140,102,112.61,147.88c95-61.75,156.61-38.32,187,10.91l.18-.08C308.72,144.54,316.37,125.71,322.24,99.41Z"/><path class="e" d="M349.77,161.47c-5.57-9.46-2.46-18.72-5-30.38,1.31,7.31-.45,21.28,3.09,28A11,11,0,0,0,349.77,161.47Z"/><path class="e" d="M278,282.49c46-14.54,50.47-77,21.74-123.6-47.47,75.28-130.21,18.62-167.76,257.75C160.57,338.68,218.63,301.26,278,282.49Z"/><path class="e" d="M340.2,122c1.77,2.88,2.9,5,3.44,5.82a6.85,6.85,0,0,1,.73,1.68,34.71,34.71,0,0,0-5.5-10.61q.79,1.39,1.51,2.8Z"/><path class="f" d="M340.38,295.69c49.57,9-19.21-133.24,9.39-134.21h0a11,11,0,0,1-1.93-2.42c-3.54-6.68-1.78-20.65-3.09-28-.1-.45-.19-.9-.31-1.36l-.08-.28a6.85,6.85,0,0,0-.73-1.68c-.55-.86-1.67-2.94-3.44-5.82-10.84,19-24.76,29.86-40.38,36.75l-.12.19c28.73,46.59,24.21,109.06-21.74,123.6-59.34,18.78-117.39,56.19-146,134.15-.14.9-1,2.09-1.12,3C195.64,318.81,274.36,283.69,340.38,295.69Z"/><path class="e" d="M324.83,102c-.9-1.1-1.74-2.16-2.46-3.17l-.13.57Q323.58,100.71,324.83,102Z"/><path class="e" d="M340.2,122l.18-.31q-.72-1.41-1.51-2.8c-1.9-2.66-4.07-5.3-6.26-7.84A121,121,0,0,1,340.2,122Z"/><path class="g" d="M324.83,102q-1.25-1.3-2.59-2.6c-5.88,26.31-13.53,45.13-22.42,59.3,15.62-6.89,29.53-17.75,40.38-36.75A121,121,0,0,0,332.61,111C329.88,107.83,327.12,104.79,324.83,102Z"/></svg>